<svg id="Layer_1" data-name="Layer 1" xmlns="http://www.w3.org/2000/svg" viewBox="0 0 641.18 190.94"><defs><style>.cls-1{fill:#cdab5a;}.cls-2{fill:#ffd96c;}.cls-3{fill:#222;}</style></defs><polygon class="cls-1" points="274.49 0.26 80.17 190.94 0 190.94 0 0.26 274.49 0.26"/><polygon class="cls-2" points="480.88 160.56 450.5 190.94 129.91 190.94 320.59 0.26 480.88 160.56"/><polygon class="cls-1" points="641.18 0.26 480.88 160.56 320.59 0.26 641.18 0.26"/><polygon class="cls-3" points="320.59 0.26 129.91 190.94 80.17 190.94 274.49 0.26 320.59 0.26"/><polygon class="cls-3" points="320.59 0.26 129.91 190.94 80.17 190.94 274.49 0.26 320.59 0.26"/><polygon class="cls-1" points="641.18 0.26 641.18 190.94 450.5 190.94 641.18 0.26"/><polygon class="cls-3" points="641.18 0.26 450.5 190.94 400.76 190.94 456.54 136.21 595.08 0.26 641.18 0.26"/><polygon class="cls-3" points="641.18 102.39 641.18 149.28 599.52 190.94 550.93 190.94 641.18 102.39"/><polygon class="cls-3" points="120.47 0 0 120.47 0 72.98 74.11 0.26 74.38 0 120.47 0"/></svg>